<svg xmlns="http://www.w3.org/2000/svg" xmlns:xlink="http://www.w3.org/1999/xlink" width="500" zoomAndPan="magnify" viewBox="0 0 375 374.999991" height="500" preserveAspectRatio="xMidYMid meet" version="1.0"><defs><clipPath id="60264022a8"><path d="M 215 37.5 L 241.226562 37.5 L 241.226562 70 L 215 70 Z M 215 37.5 " clip-rule="nonzero"/></clipPath><clipPath id="5c92a40443"><path d="M 128.011719 110.875 L 198.617188 110.875 L 198.617188 124.5 L 128.011719 124.5 Z M 128.011719 110.875 " clip-rule="nonzero"/></clipPath><clipPath id="da24c3a449"><path d="M 127 127 L 277.269531 127 L 277.269531 129 L 127 129 Z M 127 127 " clip-rule="nonzero"/></clipPath><clipPath id="50386bb5f6"><path d="M 98.019531 108.308594 L 118 108.308594 L 118 129 L 98.019531 129 Z M 98.019531 108.308594 " clip-rule="nonzero"/></clipPath><clipPath id="b10fd05733"><path d="M 127 162 L 277.269531 162 L 277.269531 163 L 127 163 Z M 127 162 " clip-rule="nonzero"/></clipPath><clipPath id="550e0d3a01"><path d="M 98.019531 142 L 118 142 L 118 163 L 98.019531 163 Z M 98.019531 142 " clip-rule="nonzero"/></clipPath><clipPath id="12584f9415"><path d="M 127 196 L 277.269531 196 L 277.269531 198 L 127 198 Z M 127 196 " clip-rule="nonzero"/></clipPath><clipPath id="ec47e098bd"><path d="M 98.019531 177 L 118 177 L 118 198 L 98.019531 198 Z M 98.019531 177 " clip-rule="nonzero"/></clipPath><clipPath id="f3223829b6"><path d="M 127 231 L 277.269531 231 L 277.269531 232 L 127 232 Z M 127 231 " clip-rule="nonzero"/></clipPath><clipPath id="9112bac2c0"><path d="M 98.019531 212 L 118 212 L 118 232 L 98.019531 232 Z M 98.019531 212 " clip-rule="nonzero"/></clipPath><clipPath id="df55e45bee"><path d="M 127 266 L 277.269531 266 L 277.269531 266.558594 L 127 266.558594 Z M 127 266 " clip-rule="nonzero"/></clipPath><clipPath id="4e0c1cc317"><path d="M 98.019531 246 L 118 246 L 118 266.558594 L 98.019531 266.558594 Z M 98.019531 246 " clip-rule="nonzero"/></clipPath><clipPath id="ca9d38070c"><path d="M 0 28.359375 L 375 28.359375 L 375 346.359375 L 0 346.359375 Z M 0 28.359375 " clip-rule="nonzero"/></clipPath><clipPath id="0e58a56a24"><path d="M 98.019531 107 L 119 107 L 119 128.238281 L 98.019531 128.238281 Z M 98.019531 107 " clip-rule="nonzero"/></clipPath><clipPath id="b5dfeb5cbb"><path d="M 102 106.488281 L 119.019531 106.488281 L 119.019531 124 L 102 124 Z M 102 106.488281 " clip-rule="nonzero"/></clipPath><clipPath id="d592e60e73"><path d="M 98.019531 142 L 119 142 L 119 163.039062 L 98.019531 163.039062 Z M 98.019531 142 " clip-rule="nonzero"/></clipPath><clipPath id="342a5fa0e1"><path d="M 102 141.289062 L 119.019531 141.289062 L 119.019531 159 L 102 159 Z M 102 141.289062 " clip-rule="nonzero"/></clipPath></defs><g clip-path="url(#60264022a8)"><path fill="#000000" d="M 241.066406 44.917969 C 241.183594 45.359375 241.105469 45.828125 240.855469 46.210938 C 234.945312 55.085938 230.929688 62.183594 228.582031 67.917969 C 228.441406 68.257812 228.300781 68.617188 228.144531 69.015625 L 215.355469 62.832031 C 215.574219 62.464844 215.765625 62.128906 215.941406 61.804688 C 218.941406 56.386719 221.964844 48.808594 225.183594 38.632812 C 225.324219 38.199219 225.644531 37.84375 226.0625 37.664062 C 226.335938 37.542969 226.636719 37.507812 226.921875 37.554688 L 240.617188 44.175781 C 240.832031 44.375 240.988281 44.628906 241.066406 44.917969 " fill-opacity="1" fill-rule="nonzero"/></g><path fill="#000000" d="M 228.175781 69.816406 C 229.105469 70.320312 229.472656 71.460938 229.015625 72.417969 L 228.84375 72.773438 C 228.371094 73.757812 227.1875 74.175781 226.210938 73.699219 L 212.917969 67.273438 C 211.941406 66.800781 211.527344 65.613281 212 64.628906 L 212.167969 64.273438 C 212.628906 63.316406 213.746094 62.898438 214.71875 63.308594 L 228.175781 69.816406 " fill-opacity="1" fill-rule="nonzero"/><path fill="#000000" d="M 218.164062 96.695312 C 212.226562 99.992188 205.332031 106.417969 201.214844 110.78125 C 201.386719 111.160156 201.398438 111.613281 201.203125 112.019531 C 200.90625 112.628906 200.246094 112.9375 199.613281 112.808594 L 201.4375 109.015625 L 209.582031 92.4375 C 210.414062 92.453125 211.5625 92.164062 211.929688 91.394531 C 212.203125 90.820312 212.214844 90.160156 211.957031 89.582031 C 211.703125 88.996094 211.203125 88.5625 210.59375 88.378906 C 209.78125 88.136719 208.878906 88.414062 208.339844 89.070312 C 207.671875 89.878906 208.054688 91.226562 208.703125 92.015625 L 200.78125 108.953125 L 199.046875 112.554688 C 198.492188 112.148438 198.292969 111.394531 198.601562 110.753906 C 198.808594 110.316406 199.207031 110.035156 199.648438 109.957031 C 200.472656 104 201.171875 94.621094 200.039062 87.929688 C 199.703125 85.929688 200.394531 83.910156 201.890625 82.523438 C 206.441406 78.304688 210.015625 73.375 212.519531 67.867188 L 212.613281 67.910156 L 225.902344 74.335938 L 226 74.386719 C 223.273438 79.785156 221.664062 85.664062 221.222656 91.867188 C 221.074219 93.90625 219.929688 95.710938 218.164062 96.695312 " fill-opacity="1" fill-rule="nonzero"/><path fill="#000000" d="M 200.78125 108.953125 L 200.292969 109.988281 " fill-opacity="1" fill-rule="nonzero"/><path fill="#000000" d="M 201.4375 109.015625 L 200.824219 110.269531 " fill-opacity="1" fill-rule="nonzero"/><path fill="#000000" d="M 200.292969 109.988281 L 200.28125 109.984375 C 200.285156 109.984375 200.292969 109.988281 200.292969 109.988281 " fill-opacity="1" fill-rule="nonzero"/><path fill="#000000" d="M 200.832031 110.273438 L 200.824219 110.269531 C 200.828125 110.269531 200.828125 110.273438 200.832031 110.273438 " fill-opacity="1" fill-rule="nonzero"/><path fill="#000000" d="M 200.292969 109.988281 L 200.78125 108.953125 " fill-opacity="1" fill-rule="nonzero"/><g clip-path="url(#5c92a40443)"><path fill="#000000" d="M 128.011719 120.09375 C 128.09375 119.6875 128.171875 119.261719 128.3125 118.859375 C 128.433594 118.445312 128.621094 118.0625 128.792969 117.660156 C 129.183594 116.886719 129.679688 116.160156 130.25 115.488281 C 130.835938 114.832031 131.488281 114.226562 132.199219 113.699219 C 132.378906 113.570312 132.5625 113.445312 132.75 113.320312 C 132.929688 113.191406 133.121094 113.078125 133.3125 112.96875 C 133.507812 112.859375 133.695312 112.738281 133.894531 112.640625 L 134.496094 112.339844 C 135.308594 111.972656 136.148438 111.652344 137.027344 111.4375 C 137.246094 111.375 137.46875 111.335938 137.691406 111.289062 C 137.914062 111.242188 138.136719 111.195312 138.359375 111.167969 L 139.023438 111.074219 L 139.6875 111.011719 C 140.578125 110.949219 141.472656 110.941406 142.351562 111.003906 C 143.230469 111.066406 144.109375 111.175781 144.964844 111.339844 C 146.679688 111.664062 148.332031 112.179688 149.902344 112.808594 C 151.484375 113.433594 152.96875 114.199219 154.410156 114.96875 C 157.277344 116.542969 159.988281 118.1875 162.835938 119.382812 L 163.371094 119.605469 L 164.988281 120.191406 L 165.53125 120.382812 L 167.195312 120.851562 C 167.378906 120.902344 167.5625 120.960938 167.75 121.007812 L 169.449219 121.359375 C 169.636719 121.394531 169.824219 121.445312 170.015625 121.472656 L 171.738281 121.707031 C 174.8125 122.089844 177.953125 122.054688 181.050781 121.609375 C 187.253906 120.75 193.304688 118.253906 198.320312 114.246094 L 198.59375 114.554688 L 196.785156 116.195312 C 196.144531 116.695312 195.507812 117.207031 194.855469 117.703125 C 194.179688 118.15625 193.503906 118.621094 192.816406 119.0625 C 192.105469 119.46875 191.402344 119.890625 190.683594 120.285156 C 187.777344 121.8125 184.648438 122.9375 181.417969 123.652344 C 178.183594 124.351562 174.84375 124.632812 171.503906 124.457031 L 170.253906 124.355469 L 169.628906 124.308594 C 169.417969 124.292969 169.210938 124.25 169.003906 124.222656 L 167.761719 124.039062 L 167.136719 123.945312 C 166.929688 123.910156 166.726562 123.859375 166.519531 123.816406 L 165.289062 123.542969 L 164.671875 123.40625 C 164.46875 123.351562 164.265625 123.289062 164.066406 123.230469 L 162.851562 122.871094 L 162.242188 122.6875 L 161.648438 122.480469 C 158.484375 121.347656 155.511719 119.929688 152.609375 118.65625 C 151.886719 118.328125 151.164062 118.011719 150.449219 117.710938 C 149.734375 117.398438 149.027344 117.109375 148.320312 116.828125 C 146.902344 116.265625 145.484375 115.769531 144.058594 115.386719 C 143.347656 115.183594 142.632812 115.039062 141.917969 114.914062 C 141.199219 114.78125 140.480469 114.71875 139.761719 114.675781 L 139.222656 114.652344 L 138.683594 114.660156 C 138.503906 114.65625 138.328125 114.671875 138.152344 114.679688 C 137.976562 114.691406 137.796875 114.6875 137.625 114.714844 L 137.09375 114.773438 C 136.917969 114.800781 136.742188 114.835938 136.5625 114.863281 C 136.476562 114.878906 136.386719 114.890625 136.296875 114.90625 L 136.035156 114.964844 C 135.863281 115.007812 135.683594 115.039062 135.507812 115.089844 C 134.808594 115.273438 134.125 115.519531 133.449219 115.808594 C 132.785156 116.113281 132.140625 116.472656 131.519531 116.890625 C 130.910156 117.316406 130.339844 117.804688 129.800781 118.355469 C 129.554688 118.640625 129.285156 118.925781 129.066406 119.246094 C 128.8125 119.550781 128.628906 119.894531 128.402344 120.230469 L 128.011719 120.09375 " fill-opacity="1" fill-rule="nonzero"/></g><path fill="#2563eb" d="M 70.742188 95.382812 L 0.324219 173.660156 L 27.671875 171.53125 C 27.671875 171.53125 24.726562 216.890625 45.523438 255.375 C 66.320312 293.855469 86.296875 305.976562 96.777344 314.652344 C 107.257812 323.332031 141.484375 343.804688 192.414062 345.933594 C 243.339844 348.0625 272.816406 327.753906 272.816406 327.753906 L 255.785156 294.511719 C 255.785156 294.511719 216.484375 315.964844 175.382812 308.265625 C 134.277344 300.570312 123.796875 287.960938 111.1875 279.773438 C 98.414062 271.585938 65.992188 230.644531 63.863281 187.742188 L 76.964844 199.695312 Z M 70.742188 95.382812 " fill-opacity="1" fill-rule="nonzero"/><path fill="#2563eb" d="M 304.257812 279.773438 L 374.675781 201.496094 L 347.328125 203.625 C 347.328125 203.625 350.273438 158.265625 329.476562 119.78125 C 308.679688 81.300781 288.867188 69.015625 278.386719 60.339844 C 267.90625 51.660156 233.679688 31.191406 182.75 29.0625 C 131.824219 26.933594 102.183594 47.238281 102.183594 47.238281 L 119.214844 80.644531 C 119.214844 80.644531 158.515625 59.191406 199.617188 66.890625 C 240.722656 74.585938 251.203125 87.03125 263.8125 95.382812 C 276.585938 103.570312 309.007812 144.511719 311.136719 187.414062 L 298.035156 175.460938 Z M 304.257812 279.773438 " fill-opacity="1" fill-rule="nonzero"/><g clip-path="url(#da24c3a449)"><path fill="#000000" d="M 127.941406 127.667969 L 277.242188 127.667969 L 277.242188 128.101562 L 127.941406 128.101562 Z M 127.941406 127.667969 " fill-opacity="1" fill-rule="nonzero"/></g><g clip-path="url(#50386bb5f6)"><path fill="#000000" d="M 107.976562 128.101562 C 102.507812 128.101562 98.050781 123.667969 98.050781 118.214844 C 98.050781 112.757812 102.507812 108.308594 107.976562 108.308594 C 113.445312 108.308594 117.902344 112.757812 117.902344 118.214844 C 117.902344 123.667969 113.445312 128.101562 107.976562 128.101562 Z M 107.976562 108.746094 C 102.742188 108.746094 98.5 112.992188 98.5 118.199219 C 98.5 123.40625 102.757812 127.652344 107.976562 127.652344 C 113.195312 127.652344 117.453125 123.40625 117.453125 118.199219 C 117.453125 112.992188 113.195312 108.746094 107.976562 108.746094 Z M 107.976562 108.746094 " fill-opacity="1" fill-rule="nonzero"/></g><g clip-path="url(#b10fd05733)"><path fill="#000000" d="M 127.941406 162.273438 L 277.242188 162.273438 L 277.242188 162.707031 L 127.941406 162.707031 Z M 127.941406 162.273438 " fill-opacity="1" fill-rule="nonzero"/></g><g clip-path="url(#550e0d3a01)"><path fill="#000000" d="M 107.976562 162.722656 C 102.507812 162.722656 98.050781 158.277344 98.050781 152.820312 C 98.050781 147.367188 102.507812 142.917969 107.976562 142.917969 C 113.445312 142.917969 117.902344 147.367188 117.902344 152.820312 C 117.902344 158.277344 113.445312 162.722656 107.976562 162.722656 Z M 107.976562 143.367188 C 102.742188 143.367188 98.5 147.613281 98.5 152.820312 C 98.5 158.027344 102.757812 162.273438 107.976562 162.273438 C 113.195312 162.273438 117.453125 158.027344 117.453125 152.820312 C 117.453125 147.613281 113.195312 143.367188 107.976562 143.367188 Z M 107.976562 143.367188 " fill-opacity="1" fill-rule="nonzero"/></g><g clip-path="url(#12584f9415)"><path fill="#000000" d="M 127.941406 196.898438 L 277.242188 196.898438 L 277.242188 197.332031 L 127.941406 197.332031 Z M 127.941406 196.898438 " fill-opacity="1" fill-rule="nonzero"/></g><g clip-path="url(#ec47e098bd)"><path fill="#000000" d="M 107.976562 197.332031 C 102.507812 197.332031 98.050781 192.898438 98.050781 187.441406 C 98.050781 181.988281 102.507812 177.539062 107.976562 177.539062 C 113.445312 177.539062 117.902344 181.988281 117.902344 187.441406 C 117.902344 192.898438 113.445312 197.332031 107.976562 197.332031 Z M 107.976562 177.972656 C 102.742188 177.972656 98.5 182.21875 98.5 187.429688 C 98.5 192.636719 102.757812 196.882812 107.976562 196.882812 C 113.195312 196.882812 117.453125 192.636719 117.453125 187.429688 C 117.453125 182.21875 113.195312 177.972656 107.976562 177.972656 Z M 107.976562 177.972656 " fill-opacity="1" fill-rule="nonzero"/></g><g clip-path="url(#f3223829b6)"><path fill="#000000" d="M 127.941406 231.503906 L 277.242188 231.503906 L 277.242188 231.9375 L 127.941406 231.9375 Z M 127.941406 231.503906 " fill-opacity="1" fill-rule="nonzero"/></g><g clip-path="url(#9112bac2c0)"><path fill="#000000" d="M 107.976562 231.953125 C 102.507812 231.953125 98.050781 227.503906 98.050781 222.050781 C 98.050781 216.59375 102.507812 212.148438 107.976562 212.148438 C 113.445312 212.148438 117.902344 216.59375 117.902344 222.050781 C 117.902344 227.503906 113.445312 231.953125 107.976562 231.953125 Z M 107.976562 212.597656 C 102.742188 212.597656 98.5 216.84375 98.5 222.050781 C 98.5 227.257812 102.757812 231.503906 107.976562 231.503906 C 113.195312 231.503906 117.453125 227.257812 117.453125 222.050781 C 117.453125 216.84375 113.195312 212.597656 107.976562 212.597656 Z M 107.976562 212.597656 " fill-opacity="1" fill-rule="nonzero"/></g><g clip-path="url(#df55e45bee)"><path fill="#000000" d="M 127.941406 266.125 L 277.242188 266.125 L 277.242188 266.558594 L 127.941406 266.558594 Z M 127.941406 266.125 " fill-opacity="1" fill-rule="nonzero"/></g><g clip-path="url(#4e0c1cc317)"><path fill="#000000" d="M 107.976562 266.558594 C 102.507812 266.558594 98.050781 262.113281 98.050781 256.65625 C 98.050781 251.203125 102.507812 246.753906 107.976562 246.753906 C 113.445312 246.753906 117.902344 251.203125 117.902344 256.65625 C 117.902344 262.113281 113.445312 266.558594 107.976562 266.558594 Z M 107.976562 247.203125 C 102.742188 247.203125 98.5 251.449219 98.5 256.65625 C 98.5 261.863281 102.757812 266.109375 107.976562 266.109375 C 113.195312 266.109375 117.453125 261.863281 117.453125 256.65625 C 117.453125 251.449219 113.195312 247.203125 107.976562 247.203125 Z M 107.976562 247.203125 " fill-opacity="1" fill-rule="nonzero"/></g><g clip-path="url(#ca9d38070c)"><path fill="#f59e0b" d="M 0 212.867188 L 43.136719 156.511719 L 98.792969 238.609375 C 98.792969 238.609375 187.152344 66.761719 375 28.496094 C 290.605469 70.140625 141.28125 237.074219 115.492188 346.445312 C 43.832031 251.824219 0 212.867188 0 212.867188 " fill-opacity="1" fill-rule="nonzero"/></g><g clip-path="url(#0e58a56a24)"><path fill="#000000" d="M 108.277344 107.699219 C 102.628906 107.699219 98.027344 112.304688 98.027344 117.964844 C 98.027344 123.625 102.628906 128.230469 108.277344 128.230469 C 113.925781 128.230469 118.523438 123.625 118.523438 117.964844 C 118.523438 115.519531 117.699219 113.332031 116.296875 111.539062 L 115.332031 112.683594 C 116.554688 114.191406 117.03125 115.867188 117.03125 117.964844 C 117.03125 122.816406 113.117188 126.734375 108.277344 126.734375 C 103.4375 126.734375 99.519531 122.816406 99.519531 117.964844 C 99.519531 113.117188 103.4375 109.195312 108.277344 109.195312 C 109.8125 109.195312 110.957031 109.414062 112.210938 110.105469 L 113.128906 108.902344 C 111.660156 108.089844 110.066406 107.699219 108.277344 107.699219 Z M 108.277344 107.699219 " fill-opacity="1" fill-rule="evenodd"/></g><g clip-path="url(#b5dfeb5cbb)"><path fill="#000000" d="M 104.484375 116.613281 C 104.898438 116.613281 105.210938 116.953125 105.421875 117.632812 C 105.847656 118.90625 106.148438 119.542969 106.328125 119.542969 C 106.464844 119.542969 106.609375 119.4375 106.757812 119.226562 C 109.734375 114.449219 112.488281 110.585938 115.023438 107.632812 C 115.679688 106.871094 116.722656 106.488281 118.152344 106.488281 C 118.492188 106.488281 118.71875 106.519531 118.835938 106.582031 C 118.953125 106.648438 119.011719 106.726562 119.011719 106.820312 C 119.011719 106.972656 118.835938 107.261719 118.488281 107.699219 C 114.398438 112.625 110.605469 117.824219 107.105469 123.300781 C 106.863281 123.683594 106.363281 123.875 105.613281 123.875 C 104.851562 123.875 104.398438 123.84375 104.261719 123.78125 C 103.902344 123.621094 103.476562 122.808594 102.988281 121.34375 C 102.4375 119.71875 102.164062 118.699219 102.164062 118.285156 C 102.164062 117.839844 102.535156 117.410156 103.277344 116.996094 C 103.730469 116.742188 104.132812 116.613281 104.484375 116.613281 " fill-opacity="1" fill-rule="nonzero"/></g><g clip-path="url(#d592e60e73)"><path fill="#000000" d="M 108.277344 142.5 C 102.628906 142.5 98.027344 147.109375 98.027344 152.765625 C 98.027344 158.425781 102.628906 163.035156 108.277344 163.035156 C 113.925781 163.035156 118.523438 158.425781 118.523438 152.765625 C 118.523438 150.320312 117.699219 148.132812 116.296875 146.339844 L 115.332031 147.484375 C 116.554688 148.996094 117.03125 150.671875 117.03125 152.765625 C 117.03125 157.617188 113.117188 161.535156 108.277344 161.535156 C 103.4375 161.535156 99.519531 157.617188 99.519531 152.765625 C 99.519531 147.917969 103.4375 143.996094 108.277344 143.996094 C 109.8125 143.996094 110.957031 144.214844 112.210938 144.910156 L 113.128906 143.703125 C 111.660156 142.890625 110.066406 142.5 108.277344 142.5 Z M 108.277344 142.5 " fill-opacity="1" fill-rule="evenodd"/></g><g clip-path="url(#342a5fa0e1)"><path fill="#000000" d="M 104.484375 151.417969 C 104.898438 151.417969 105.210938 151.757812 105.421875 152.4375 C 105.847656 153.710938 106.148438 154.347656 106.328125 154.347656 C 106.464844 154.347656 106.609375 154.242188 106.757812 154.027344 C 109.734375 149.25 112.488281 145.386719 115.023438 142.4375 C 115.679688 141.671875 116.722656 141.289062 118.152344 141.289062 C 118.492188 141.289062 118.71875 141.320312 118.835938 141.386719 C 118.953125 141.449219 119.011719 141.527344 119.011719 141.625 C 119.011719 141.773438 118.835938 142.066406 118.488281 142.5 C 114.398438 147.425781 110.605469 152.625 107.105469 158.105469 C 106.863281 158.488281 106.363281 158.675781 105.613281 158.675781 C 104.851562 158.675781 104.398438 158.644531 104.261719 158.582031 C 103.902344 158.421875 103.476562 157.609375 102.988281 156.144531 C 102.4375 154.523438 102.164062 153.503906 102.164062 153.089844 C 102.164062 152.644531 102.535156 152.210938 103.277344 151.796875 C 103.730469 151.542969 104.132812 151.417969 104.484375 151.417969 " fill-opacity="1" fill-rule="nonzero"/></g></svg>